<svg xmlns="http://www.w3.org/2000/svg" style="display: none;">
  <symbol id="dashboard" viewBox="0 0 24 24"><path fill="currentColor" d="M13 9V3h8v6zM3 13V3h8v10zm10 8V11h8v10zM3 21v-6h8v6z"/></symbol>
  <symbol id="track_changes" viewBox="0 0 24 24"><path fill="currentColor" d="M8.1 21.213q-1.825-.788-3.175-2.138T2.788 15.9T2 12t.788-3.9t2.137-3.175T8.1 2.788T12 2h1v8.275q.45.275.725.713T14 12q0 .825-.587 1.413T12 14t-1.412-.587T10 12q0-.575.275-1.025t.725-.7v-2.15q-1.3.35-2.15 1.413T8 12q0 1.65 1.175 2.825T12 16t2.825-1.175T16 12q0-.9-.363-1.662T14.65 9l1.425-1.425q.875.825 1.4 1.963T18 12q0 2.5-1.75 4.25T12 18t-4.25-1.75T6 12q0-2.25 1.425-3.912T11 6.075V4.05q-2.975.375-4.988 2.625T4 12q0 3.35 2.325 5.675T12 20t5.675-2.325T20 12q0-1.725-.675-3.225t-1.85-2.6L18.9 4.75q1.425 1.375 2.263 3.238T22 12q0 2.075-.788 3.9t-2.137 3.175t-3.175 2.138T12 22t-3.9-.788"/></symbol>
  <symbol id="monitoring" viewBox="0 0 24 24"><path fill="currentColor" d="M3 21v-2l2-2v4zm4 0v-6l2-2v8zm4 0v-8l2 2.025V21zm4 0v-5.975l2-2V21zm4 0V11l2-2v12zM3 15.825V13l7-7l4 4l7-7v2.825l-7 7l-4-4z"/></symbol>
  <symbol id="manage_accounts" viewBox="0 0 24 24"><path fill="currentColor" d="m16 21l-.3-1.5q-.3-.125-.562-.262T14.6 18.9l-1.45.45l-1-1.7l1.15-1q-.05-.35-.05-.65t.05-.65l-1.15-1l1-1.7l1.45.45q.275-.2.538-.337t.562-.263L16 11h2l.3 1.5q.3.125.563.275t.537.375l1.45-.5l1 1.75l-1.15 1q.05.3.05.625t-.05.625l1.15 1l-1 1.7l-1.45-.45q-.275.2-.537.338t-.563.262L18 21zM2 20v-2.8q0-.825.425-1.55t1.175-1.1q1.275-.65 2.875-1.1T10 13h.35q.15 0 .3.05q-.725 1.8-.6 3.575T11.25 20zm16.413-2.588Q19 16.826 19 16t-.587-1.412T17 14t-1.412.588T15 16t.588 1.413T17 18t1.413-.587M7.175 10.825Q6 9.65 6 8t1.175-2.825T10 4t2.825 1.175T14 8t-1.175 2.825T10 12t-2.825-1.175"/></symbol>
  <symbol id="bar_chart" viewBox="0 0 24 24"><path fill="currentColor" d="M16 20v-7h4v7zm-6 0V4h4v16zm-6 0V9h4v11z"/></symbol>
  <symbol id="apartment" viewBox="0 0 24 24"><path fill="currentColor" d="M3 21V7h4V3h10v8h4v10h-8v-4h-2v4zm2-2h2v-2H5zm0-4h2v-2H5zm0-4h2V9H5zm4 4h2v-2H9zm0-4h2V9H9zm0-4h2V5H9zm4 8h2v-2h-2zm0-4h2V9h-2zm0-4h2V5h-2zm4 12h2v-2h-2zm0-4h2v-2h-2z"/></symbol>
  <symbol id="checklist" viewBox="0 0 24 24"><path fill="currentColor" d="M5.55 19L2 15.45l1.4-1.4l2.125 2.125l4.25-4.25l1.4 1.425zm0-8L2 7.45l1.4-1.4l2.125 2.125l4.25-4.25l1.4 1.425zM13 17v-2h9v2zm0-8V7h9v2z"/></symbol>
  <symbol id="group" viewBox="0 0 24 24"><path fill="currentColor" d="M1 20v-2.8q0-.85.438-1.562T2.6 14.55q1.55-.775 3.15-1.162T9 13t3.25.388t3.15 1.162q.725.375 1.163 1.088T17 17.2V20zm18 0v-3q0-1.1-.612-2.113T16.65 13.15q1.275.15 2.4.513t2.1.887q.9.5 1.375 1.112T23 17v3zM6.175 10.825Q5 9.65 5 8t1.175-2.825T9 4t2.825 1.175T13 8t-1.175 2.825T9 12t-2.825-1.175m11.65 0Q16.65 12 15 12q-.275 0-.7-.062t-.7-.138q.675-.8 1.038-1.775T15 8t-.362-2.025T13.6 4.2q.35-.125.7-.163T15 4q1.65 0 2.825 1.175T19 8t-1.175 2.825"/></symbol>
  <symbol id="fact_check" viewBox="0 0 24 24"><path fill="currentColor" d="M4 21q-.825 0-1.412-.587T2 19V5q0-.825.588-1.412T4 3h16q.825 0 1.413.588T22 5v14q0 .825-.587 1.413T20 21zm1-4h5v-2H5zm9.55-2l4.95-4.95l-1.425-1.425l-3.525 3.55l-1.425-1.425l-1.4 1.425zM5 13h5v-2H5zm0-4h5V7H5z"/></symbol>
  <symbol id="notifications_active" viewBox="0 0 24 24"><path fill="currentColor" d="M4 19v-2h2v-7q0-2.075 1.25-3.687T10.5 4.2v-.7q0-.625.438-1.062T12 2t1.063.438T13.5 3.5v.7q2 .5 3.25 2.113T18 10v7h2v2zm8 3q-.825 0-1.412-.587T10 20h4q0 .825-.587 1.413T12 22M2 10q0-2.5 1.113-4.587T6.1 1.95l1.175 1.6q-1.5 1.1-2.387 2.775T4 10zm18 0q0-2-.888-3.675T16.726 3.55l1.175-1.6q1.875 1.375 2.988 3.463T22 10z"/></symbol>
  <symbol id="history" viewBox="0 0 24 24"><path fill="currentColor" d="M12 21q-3.45 0-6.012-2.287T3.05 13H5.1q.35 2.6 2.313 4.3T12 19q2.925 0 4.963-2.037T19 12t-2.037-4.962T12 5q-1.725 0-3.225.8T6.25 8H9v2H3V4h2v2.35q1.275-1.6 3.113-2.475T12 3q1.875 0 3.513.713t2.85 1.924t1.925 2.85T21 12t-.712 3.513t-1.925 2.85t-2.85 1.925T12 21m2.8-4.8L11 12.4V7h2v4.6l3.2 3.2z"/></symbol>
  <symbol id="logout" viewBox="0 0 24 24"><path fill="currentColor" d="M5 21q-.825 0-1.412-.587T3 19V5q0-.825.588-1.412T5 3h7v2H5v14h7v2zm11-4l-1.375-1.45l2.55-2.55H9v-2h8.175l-2.55-2.55L16 7l5 5z"/></symbol>
  <symbol id="support_agent" viewBox="0 0 24 24"><path fill="currentColor" d="M11 21v-2h8v-7.1q0-2.925-2.037-4.962T12 4.9T7.038 6.938T5 11.9V18H4q-.825 0-1.412-.587T2 16v-2q0-.525.263-.987T3 12.275l.075-1.325q.2-1.7.988-3.15t1.975-2.525T8.762 3.6T12 3t3.225.6t2.725 1.663t1.975 2.512t1 3.15l.075 1.3q.475.225.738.675t.262.95v2.3q0 .5-.262.95t-.738.675V19q0 .825-.587 1.413T19 21zm-2.713-7.287Q8 13.425 8 13t.288-.712T9 12t.713.288T10 13t-.288.713T9 14t-.712-.288m6 0Q14 13.426 14 13t.288-.712T15 12t.713.288T16 13t-.288.713T15 14t-.712-.288M6.025 12.45Q5.85 9.8 7.625 7.9T12.05 6q2.225 0 3.913 1.413T18 11.025Q15.725 11 13.813 9.8t-2.938-3.25q-.4 2-1.687 3.563T6.025 12.45"/></symbol>
  <symbol id="menu" viewBox="0 0 24 24"><path fill="currentColor" d="M3 18v-2h18v2zm0-5v-2h18v2zm0-5V6h18v2z"/></symbol>
  <symbol id="person" viewBox="0 0 24 24"><path fill="currentColor" d="M9.175 10.825Q8 9.65 8 8t1.175-2.825T12 4t2.825 1.175T16 8t-1.175 2.825T12 12t-2.825-1.175M4 20v-2.8q0-.85.438-1.562T5.6 14.55q1.55-.775 3.15-1.162T12 13t3.25.388t3.15 1.162q.725.375 1.163 1.088T20 17.2V20z"/></symbol>
  <symbol id="chevron_right" viewBox="0 0 24 24"><path fill="currentColor" d="M12.6 12L8 7.4L9.4 6l6 6l-6 6L8 16.6z"/></symbol>
</svg>
